<?xml version="1.0" encoding="iso-8859-1"?>
<!-- Uploaded to: SVG Repo, www.svgrepo.com, Generator: SVG Repo Mixer Tools -->
<svg height="800px" width="800px" version="1.1" id="Layer_1" xmlns="http://www.w3.org/2000/svg" xmlns:xlink="http://www.w3.org/1999/xlink" 
	 viewBox="0 0 512.122 512.122" xml:space="preserve">
<g>
	<path style="fill:#51A1E6;" d="M434.342,206.832V0.002H257.791v199.565c0,28.222-13.489,54.731-36.299,71.345L74.301,378.096
		c-29.917,29.917-30.755,78.151-1.889,109.074c30.305,32.486,81.496,33.368,112.914,1.96l150.281-107.229
		c13.374-9.551,29.519-13.798,45.956-13.833c6.029-0.018,12.235-0.742,18.564-2.313c32.132-7.954,56.779-35.628,60.239-68.546
		c2.127-20.153-3.328-38.93-13.824-53.937C438.995,232.503,434.342,219.985,434.342,206.832"/>
	<g>
		<polygon style="fill:#408DC6;" points="257.791,88.273 434.342,88.273 434.342,52.963 257.791,52.963 		"/>
		<path style="fill:#408DC6;" d="M337.239,308.966c0,24.382,11.008,46.159,28.292,60.734c5.261-0.962,10.602-1.624,16.031-1.633
			c6.029-0.018,12.235-0.742,18.564-2.313c32.132-7.954,56.779-35.628,60.239-68.546c2.127-20.153-3.328-38.93-13.824-53.937
			c-2.233-3.187-4.114-6.559-5.791-10.019c-7.601-2.419-15.678-3.734-24.064-3.734C372.805,229.517,337.239,265.084,337.239,308.966
			"/>
		<path style="fill:#408DC6;" d="M72.924,379.612c-28.495,30.005-28.902,77.135-0.512,107.564
			c28.01,30.014,73.834,32.98,105.419,8.466c0.318-3.328,0.512-6.709,0.512-10.125C178.343,427.184,131.195,379.894,72.924,379.612"
			/>
		<polygon style="fill:#408DC6;" points="346.067,150.069 301.929,176.552 257.791,150.069 301.929,123.586 		"/>
		<polygon style="fill:#408DC6;" points="434.342,150.069 390.205,176.552 346.067,150.069 390.205,123.586 		"/>
		<path style="fill:#408DC6;" d="M399.032,26.483c4.873,0,8.828-3.955,8.828-8.828V0h-17.655v17.655
			C390.205,22.528,394.159,26.483,399.032,26.483"/>
		<path style="fill:#408DC6;" d="M363.722,26.483c4.873,0,8.828-3.955,8.828-8.828V0h-17.655v17.655
			C354.894,22.528,358.849,26.483,363.722,26.483"/>
		<path style="fill:#408DC6;" d="M328.411,26.483c4.873,0,8.828-3.955,8.828-8.828V0h-17.655v17.655
			C319.584,22.528,323.539,26.483,328.411,26.483"/>
		<path style="fill:#408DC6;" d="M293.101,26.483c4.873,0,8.828-3.955,8.828-8.828V0h-17.655v17.655
			C284.274,22.528,288.228,26.483,293.101,26.483"/>
	</g>
</g>
</svg>